# xmcd
#
# Track frame offsets:
#	183
#	14000
#	29455
#	42145
#	53965
#	68205
#	80910
#	93708
#	107475
#	119883
#	132730
#	144345
#	156988
#	170710
#	182983
#	195478
#	205525
#	216363
#	230763
#	244463
#	263575
#	278008
#	291440
#	311093
#
# Disc length: 4326 seconds
# Revision: 5
# Processed by: cddbd v1.5.2PL0 Copyright (c) Steve Scherf et al.
# Submitted via: dBpowerAMP V12.0
#
DISCID=8210e418
DTITLE=Various Artist - The Blues Volume 1
DYEAR=1989
DGENRE=Blues
TTITLE0=Robert Nighthawk  - Black Angel Blues
TTITLE1=Eddie Boyd and His Chess Man - 24 Hours
TTITLE2=Big Bill Broonzy - Lonesome
TTITLE3=Washboard Sam - Diggin' My Potatoes
TTITLE4=Lowell Fulson - Reconsider Baby
TTITLE5=Muddy Waters - (I'm Your) Hoochie Coochie Man
TTITLE6=Willie Mabon - Sevent Son
TTITLE7=Willie Dixon - Walking The Blues
TTITLE8=Bo Diddley - I'm A Man
TTITLE9=J.B. Lenoir - Eisenhower Blues
TTITLE10=Sonny Boy Williamson - Don't Start Me Talkin'
TTITLE11=Little Walter - Boom Boom (Out Go the Lights)
TTITLE12=Howlin' Wolf - Smokestack Lightnin'
TTITLE13=Otis Spann - I'm Leaving You
TTITLE14=Jimmy Rogers - Walking By Myself
TTITLE15=B.B. King - Don't Keep Me Waiting
TTITLE16=Elmore James - Madison Blues
TTITLE17=Otis Rush - So Many Roads, So Many Trains
TTITLE18=Albert King - Searchin' For a Woman
TTITLE19=Etta James - Baby What You Want Me To Do
TTITLE20=Buddy Guy - My Time After A While
TTITLE21=Koko Taylor - Wang Dang Doodle
TTITLE22=Little Milton - Stormy Monday
TTITLE23=John Lee Hooker - One Bourbon, One Scotch, One Beer
EXTD=
EXTT0=
EXTT1=
EXTT2=
EXTT3=
EXTT4=
EXTT5=
EXTT6=
EXTT7=
EXTT8=
EXTT9=
EXTT10=
EXTT11=
EXTT12=
EXTT13=
EXTT14=
EXTT15=
EXTT16=
EXTT17=
EXTT18=
EXTT19=
EXTT20=
EXTT21=
EXTT22=
EXTT23=
PLAYORDER=
